# xmcd
#
# Track frame offsets:
#	150
#	16162
#	30130
#	44990
#	62958
#	80883
#	96419
#	112744
#	128432
#	142364
#	157122
#	171940
#
# Disc length: 2467 seconds
#
# Revision: 2
# Processed by: cddbd v1.5.2PL0 Copyright (c) Steve Scherf et al.
# Submitted via: audiograbber 1.83.01
#
DISCID=a609a10c
DTITLE=Magnificos - Tô No Ponto
DYEAR=2001
DGENRE=Forró
TTITLE0=Amor, Amo Você
TTITLE1=Tô No Ponto
TTITLE2=De Bandeja
TTITLE3=Infinito Amor
TTITLE4=Puro Perfume
TTITLE5=No Fim das Contas
TTITLE6=Vivendo Por Viver
TTITLE7=Filha da Solidão
TTITLE8=Recomeço
TTITLE9=Ficar Na Solidão
TTITLE10=Teu Beijo
TTITLE11=Vem Bailar
EXTD=Dados Por - Dayvison de Azevedo - Recife - PE\nFacebook - https://www.face
EXTD=book.com/profile.php?id=100006142608616
EXTT0=
EXTT1=
EXTT2=
EXTT3=
EXTT4=
EXTT5=
EXTT6=
EXTT7=
EXTT8=
EXTT9=
EXTT10=
EXTT11=
PLAYORDER=
